name rise30.9205peak61.366fall85.3838.mot
datacolumns 19
datarows 18
range 1.30166600000000 1.33000600000000
endheader
time	ground_force1_vx	ground_force1_vy	ground_force1_vz	ground_force1_px	ground_force1_py	ground_force1_pz	ground_force2_vx	ground_force2_vy	ground_force2_vz	ground_force2_px	ground_force2_py	ground_force2_pz	ground_torque1_x	ground_torque1_y	ground_torque1_z	ground_torque2_x	ground_torque2_y	ground_torque2_z	
1.30166600000000	-41.01337200000000	845.04033700000002	55.29285500000000	0.13556200000000	0.00000000000000	0.09648700000000	0.00000000000000	0.00000000000000	0.00000000000000	0.00000000000000	0.00000000000000	0.00000000000000	0.00000000000000	22.03322200000000	0.00000000000000	0.00000000000000	0.00000000000000	0.00000000000000	
1.30333000000000	-41.39347900000000	843.71625200000005	55.23998200000000	0.13459800000000	0.00000000000000	0.09643000000000	0.00000000000000	0.00000000000000	0.00000000000000	0.00000000000000	0.00000000000000	0.00000000000000	0.00000000000000	21.92722100000000	0.00000000000000	0.00000000000000	0.00000000000000	0.00000000000000	
1.30500900000000	-41.78700700000000	842.27082800000005	55.16530800000000	0.13363200000000	0.00000000000000	0.09637000000000	0.00000000000000	0.00000000000000	0.00000000000000	0.00000000000000	0.00000000000000	0.00000000000000	0.00000000000000	21.81958700000000	0.00000000000000	0.00000000000000	0.00000000000000	0.00000000000000	
1.30666600000000	-42.19464500000000	840.70408199999997	55.06853000000000	0.13266400000000	0.00000000000000	0.09630600000000	0.00000000000000	0.00000000000000	0.00000000000000	0.00000000000000	0.00000000000000	0.00000000000000	0.00000000000000	21.71056600000000	0.00000000000000	0.00000000000000	0.00000000000000	0.00000000000000	
1.30832600000000	-42.61704700000000	839.01606200000003	54.94938900000000	0.13169600000000	0.00000000000000	0.09623900000000	0.00000000000000	0.00000000000000	0.00000000000000	0.00000000000000	0.00000000000000	0.00000000000000	0.00000000000000	21.60040400000000	0.00000000000000	0.00000000000000	0.00000000000000	0.00000000000000	
1.31000700000000	-43.05482900000000	837.20683499999996	54.80766200000000	0.13072600000000	0.00000000000000	0.09616900000000	0.00000000000000	0.00000000000000	0.00000000000000	0.00000000000000	0.00000000000000	0.00000000000000	0.00000000000000	21.48934400000000	0.00000000000000	0.00000000000000	0.00000000000000	0.00000000000000	
1.31165900000000	-43.50856300000000	835.27647800000000	54.64316700000000	0.12975700000000	0.00000000000000	0.09609400000000	0.00000000000000	0.00000000000000	0.00000000000000	0.00000000000000	0.00000000000000	0.00000000000000	0.00000000000000	21.37763100000000	0.00000000000000	0.00000000000000	0.00000000000000	0.00000000000000	
1.31333000000000	-43.97877300000000	833.22506399999997	54.45576200000000	0.12878700000000	0.00000000000000	0.09601700000000	0.00000000000000	0.00000000000000	0.00000000000000	0.00000000000000	0.00000000000000	0.00000000000000	0.00000000000000	21.26550600000000	0.00000000000000	0.00000000000000	0.00000000000000	0.00000000000000	
1.31500600000000	-44.46593300000000	831.05265899999995	54.24534600000000	0.12781800000000	0.00000000000000	0.09593500000000	0.00000000000000	0.00000000000000	0.00000000000000	0.00000000000000	0.00000000000000	0.00000000000000	0.00000000000000	21.15320500000000	0.00000000000000	0.00000000000000	0.00000000000000	0.00000000000000	
1.31666300000000	-44.97046100000000	828.75930600000004	54.01185700000000	0.12685000000000	0.00000000000000	0.09585000000000	0.00000000000000	0.00000000000000	0.00000000000000	0.00000000000000	0.00000000000000	0.00000000000000	0.00000000000000	21.04096100000000	0.00000000000000	0.00000000000000	0.00000000000000	0.00000000000000	
1.31833300000000	-45.49271600000000	826.34501899999998	53.75527400000000	0.12588300000000	0.00000000000000	0.09576000000000	0.00000000000000	0.00000000000000	0.00000000000000	0.00000000000000	0.00000000000000	0.00000000000000	0.00000000000000	20.92899800000000	0.00000000000000	0.00000000000000	0.00000000000000	0.00000000000000	
1.31999900000000	-46.03299400000000	823.80977499999995	53.47561500000000	0.12491900000000	0.00000000000000	0.09566700000000	0.00000000000000	0.00000000000000	0.00000000000000	0.00000000000000	0.00000000000000	0.00000000000000	0.00000000000000	20.81753500000000	0.00000000000000	0.00000000000000	0.00000000000000	0.00000000000000	
1.32166700000000	-46.59152300000000	821.15350500000000	53.17293800000000	0.12395700000000	0.00000000000000	0.09557000000000	-1.62372600000000	3.62982900000000	0.34587200000000	0.00000000000000	0.00000000000000	0.00000000000000	0.00000000000000	20.70678200000000	0.00000000000000	0.00000000000000	0.03925900000000	0.00000000000000	
1.32333300000000	-47.16846200000000	818.37608699999998	52.84733900000000	0.12299900000000	0.00000000000000	0.09546900000000	-2.61594400000000	7.15811500000000	0.56081800000000	0.00000000000000	0.00000000000000	0.00000000000000	0.00000000000000	20.59693800000000	0.00000000000000	0.00000000000000	0.06556700000000	0.00000000000000	
1.32500100000000	-47.76389600000000	815.47734200000002	52.49895200000000	0.12204400000000	0.00000000000000	0.09536400000000	-3.74197100000000	11.44347400000000	0.80541400000000	0.00000000000000	0.00000000000000	0.00000000000000	0.00000000000000	20.48819000000000	0.00000000000000	0.00000000000000	0.09600700000000	0.00000000000000	
1.32666400000000	-48.37783200000000	812.45702600000004	52.12795000000000	0.12109300000000	0.00000000000000	0.09525400000000	-4.96878200000000	16.44658900000000	1.07265400000000	0.00000000000000	0.00000000000000	0.00000000000000	0.00000000000000	20.38071700000000	0.00000000000000	0.00000000000000	0.12988700000000	0.00000000000000	
1.32832600000000	-49.01019700000000	809.31482400000004	51.73454200000000	0.12014700000000	0.00000000000000	0.09514100000000	-6.25479700000000	22.09542200000000	1.35365800000000	0.00000000000000	0.00000000000000	0.00000000000000	0.00000000000000	20.27468000000000	0.00000000000000	0.00000000000000	0.16629700000000	0.00000000000000	
1.33000600000000	-49.66083300000000	806.05034999999998	51.31897300000000	0.11920700000000	0.00000000000000	0.09502300000000	-7.55260300000000	28.29072100000000	1.63824300000000	0.33603700000000	0.00000000000000	-0.07411500000000	0.00000000000000	20.17022900000000	0.00000000000000	0.00000000000000	0.19491700000000	0.00000000000000	
